<svg preserveAspectRatio="none" width="100%" height="100%" overflow="visible" style="display: block;" viewBox="0 0 80 80" fill="none" xmlns="http://www.w3.org/2000/svg">
<g id="dice-d6">
<path id="Primary" d="M37.125 9.29375C38.9125 8.31875 41.075 8.31875 42.875 9.29375L64.7875 21.2563C65.425 21.6063 65.825 22.2813 65.825 23.0063C65.825 23.7313 65.425 24.4063 64.7875 24.7563L40.9625 37.7563C40.3625 38.0813 39.65 38.0813 39.05 37.7563L15.2125 24.7563C14.575 24.4063 14.175 23.7313 14.175 23.0063C14.175 22.2813 14.575 21.6063 15.2125 21.2563L37.125 9.29375ZM14.9625 29.2563L36.9625 41.2562C37.6 41.6062 38 42.2812 38 43.0062V70.0062C38 70.7062 37.625 71.3687 37.025 71.7312C36.425 72.0937 35.6625 72.1062 35.05 71.7687L15.125 60.8937C13.2 59.8437 12 57.8312 12 55.6312V31.0063C12 30.3063 12.375 29.6438 12.975 29.2812C13.575 28.9187 14.3375 28.9062 14.95 29.2437L14.9625 29.2563ZM65.05 29.2563C65.675 28.9188 66.425 28.9313 67.025 29.2938C67.625 29.6563 68 30.3063 68 31.0188V55.6437C68 57.8437 66.8 59.8563 64.875 60.9062L44.9625 71.7562C44.3375 72.0937 43.5875 72.0813 42.9875 71.7188C42.3875 71.3562 42.0125 70.7062 42.0125 69.9937V42.9937C42.0125 42.2562 42.4125 41.5937 43.05 41.2437L65.05 29.2437V29.2563Z" fill="var(--fill-0, #F6F1EB)"/>
</g>
</svg>
