<svg preserveAspectRatio="none" width="100%" height="100%" overflow="visible" style="display: block;" viewBox="0 0 80 80" fill="none" xmlns="http://www.w3.org/2000/svg">
<g id="gamepad">
<path id="Primary" d="M24 16C10.75 16 0 26.75 0 40C0 53.25 10.75 64 24 64H56C69.25 64 80 53.25 80 40C80 26.75 69.25 16 56 16H24ZM62 29C63.3261 29 64.5979 29.5268 65.5355 30.4645C66.4732 31.4021 67 32.6739 67 34C67 35.3261 66.4732 36.5979 65.5355 37.5355C64.5979 38.4732 63.3261 39 62 39C60.6739 39 59.4021 38.4732 58.4645 37.5355C57.5268 36.5979 57 35.3261 57 34C57 32.6739 57.5268 31.4021 58.4645 30.4645C59.4021 29.5268 60.6739 29 62 29ZM49 46C49 44.6739 49.5268 43.4021 50.4645 42.4645C51.4021 41.5268 52.6739 41 54 41C55.3261 41 56.5979 41.5268 57.5355 42.4645C58.4732 43.4021 59 44.6739 59 46C59 47.3261 58.4732 48.5979 57.5355 49.5355C56.5979 50.4732 55.3261 51 54 51C52.6739 51 51.4021 50.4732 50.4645 49.5355C49.5268 48.5979 49 47.3261 49 46ZM21 33C21 31.3375 22.3375 30 24 30C25.6625 30 27 31.3375 27 33V37H31C32.6625 37 34 38.3375 34 40C34 41.6625 32.6625 43 31 43H27V47C27 48.6625 25.6625 50 24 50C22.3375 50 21 48.6625 21 47V43H17C15.3375 43 14 41.6625 14 40C14 38.3375 15.3375 37 17 37H21V33Z" fill="var(--fill-0, #F6F1EB)"/>
</g>
</svg>
