<svg preserveAspectRatio="none" width="100%" height="100%" overflow="visible" style="display: block;" viewBox="0 0 80 80" fill="none" xmlns="http://www.w3.org/2000/svg">
<g id="puzzle-piece">
<path id="Primary" d="M32 21.1C32 19.95 31.275 18.9375 30.35 18.25C28.9 17.1625 28 15.6625 28 14C28 10.6875 31.5875 8 36 8C40.4125 8 44 10.6875 44 14C44 15.6625 43.1 17.1625 41.65 18.25C40.725 18.9375 40 19.95 40 21.1C40 22.7 41.3 24 42.9 24H50C53.3125 24 56 26.6875 56 30V37.1C56 38.7 57.3 40 58.9 40C60.05 40 61.0625 39.275 61.75 38.35C62.8375 36.9 64.3375 36 66 36C69.3125 36 72 39.5875 72 44C72 48.4125 69.3125 52 66 52C64.3375 52 62.8375 51.1 61.75 49.65C61.0625 48.725 60.05 48 58.9 48C57.3 48 56 49.3 56 50.9V66C56 69.3125 53.3125 72 50 72H42.9C41.3 72 40 70.7 40 69.1C40 67.95 40.725 66.9375 41.65 66.25C43.1 65.1625 44 63.6625 44 62C44 58.6875 40.4125 56 36 56C31.5875 56 28 58.6875 28 62C28 63.6625 28.9 65.1625 30.35 66.25C31.275 66.9375 32 67.95 32 69.1C32 70.7 30.7 72 29.1 72H14C10.6875 72 8 69.3125 8 66V50.9C8 49.3 9.3 48 10.9 48C12.05 48 13.0625 48.725 13.75 49.65C14.8375 51.1 16.3375 52 18 52C21.3125 52 24 48.4125 24 44C24 39.5875 21.3125 36 18 36C16.3375 36 14.8375 36.9 13.75 38.35C13.0625 39.275 12.05 40 10.9 40C9.3 40 8 38.7 8 37.1V30C8 26.6875 10.6875 24 14 24H29.1C30.7 24 32 22.7 32 21.1Z" fill="var(--fill-0, #F6F1EB)"/>
</g>
</svg>
