<svg preserveAspectRatio="none" width="100%" height="100%" overflow="visible" style="display: block;" viewBox="0 0 64 64" fill="none" xmlns="http://www.w3.org/2000/svg">
<g id="square-envelope">
<path id="Primary" d="M16 9.6C12.47 9.6 9.6 12.47 9.6 16V48C9.6 51.53 12.47 54.4 16 54.4H48C51.53 54.4 54.4 51.53 54.4 48V16C54.4 12.47 51.53 9.6 48 9.6H16ZM31.4 33.57L16.02 23.64C16.2 22.04 17.55 20.8 19.2 20.8H44.8C46.45 20.8 47.8 22.04 47.98 23.64L32.6 33.57C32.42 33.69 32.21 33.75 32 33.75C31.79 33.75 31.58 33.69 31.4 33.57ZM34.34 36.26L48 27.44V40C48 41.77 46.57 43.2 44.8 43.2H19.2C17.43 43.2 16 41.77 16 40V27.44L29.66 36.26C30.36 36.71 31.17 36.95 32 36.95C32.83 36.95 33.64 36.71 34.34 36.26Z" fill="var(--fill-0, black)"/>
</g>
</svg>
