<svg preserveAspectRatio="none" width="100%" height="100%" overflow="visible" style="display: block;" viewBox="0 0 48 48" fill="none" xmlns="http://www.w3.org/2000/svg">
<g id="square-instagram">
<path id="Primary" d="M21.78 20.6775C21.3432 20.9695 20.9682 21.3447 20.6764 21.7817C20.3846 22.2186 20.1817 22.7088 20.0793 23.2242C19.8725 24.265 20.0877 25.3453 20.6775 26.2275C21.2673 27.1097 22.1833 27.7214 23.2242 27.9282C24.265 28.135 25.3453 27.9198 26.2275 27.33C27.1097 26.7402 27.7214 25.8242 27.9282 24.7833C28.135 23.7425 27.9198 22.6622 27.33 21.78C26.7402 20.8978 25.8242 20.2861 24.7833 20.0793C23.7425 19.8725 22.6622 20.0877 21.78 20.6775ZM32.4525 15.5475C32.0625 15.1575 31.59 14.85 31.0725 14.6475C29.715 14.115 26.7525 14.1375 24.84 14.16C24.5325 14.16 24.2475 14.1675 24 14.1675C23.7525 14.1675 23.46 14.1675 23.145 14.16C21.2325 14.1375 18.285 14.1075 16.9275 14.6475C16.41 14.85 15.945 15.1575 15.5475 15.5475C15.15 15.9375 14.85 16.41 14.6475 16.9275C14.115 18.285 14.145 21.255 14.16 23.1675C14.16 23.475 14.1675 23.76 14.1675 24C14.1675 24.24 14.1675 24.525 14.16 24.8325C14.145 26.745 14.115 29.715 14.6475 31.0725C14.85 31.59 15.1575 32.055 15.5475 32.4525C15.9375 32.85 16.41 33.15 16.9275 33.3525C18.285 33.885 21.2475 33.8625 23.16 33.84C23.4675 33.84 23.7525 33.8325 24 33.8325C24.2475 33.8325 24.54 33.8325 24.855 33.84C26.7675 33.8625 29.715 33.8925 31.0725 33.3525C31.59 33.15 32.055 32.8425 32.4525 32.4525C32.85 32.0625 33.15 31.59 33.3525 31.0725C33.8925 29.7225 33.8625 26.7675 33.84 24.8475C33.84 24.5325 33.8325 24.24 33.8325 23.9925C33.8325 23.745 33.8325 23.46 33.84 23.1375C33.8625 21.225 33.8925 18.27 33.3525 16.9125C33.15 16.395 32.8425 15.93 32.4525 15.5325V15.5475ZM27.42 18.885C28.7766 19.792 29.7173 21.2008 30.0352 22.8015C30.353 24.4021 30.022 26.0634 29.115 27.42C28.6659 28.0917 28.0889 28.6684 27.4169 29.1171C26.7449 29.5658 25.9911 29.8778 25.1985 30.0352C23.5979 30.353 21.9366 30.022 20.58 29.115C19.2234 28.209 18.2823 26.8011 17.9637 25.2012C17.6452 23.6013 17.9752 21.9403 18.8812 20.5837C19.7873 19.2272 21.1951 18.2861 22.7951 17.9675C24.395 17.6489 26.0559 17.979 27.4125 18.885H27.42ZM29.61 18.7875C29.3775 18.63 29.19 18.405 29.0775 18.1425C28.965 17.88 28.9425 17.595 28.995 17.31C29.0475 17.025 29.19 16.7775 29.385 16.575C29.58 16.3725 29.8425 16.2375 30.12 16.185C30.3975 16.1325 30.69 16.155 30.9525 16.2675C31.215 16.38 31.44 16.56 31.5975 16.7925C31.755 17.025 31.8375 17.3025 31.8375 17.5875C31.8375 17.775 31.8 17.9625 31.7325 18.135C31.665 18.3075 31.5525 18.465 31.425 18.6C31.2975 18.735 31.1325 18.84 30.96 18.915C30.7875 18.99 30.6 19.0275 30.4125 19.0275C30.1275 19.0275 29.85 18.945 29.6175 18.7875H29.61ZM40.8 12C40.8 9.3525 38.6475 7.2 36 7.2H12C9.3525 7.2 7.2 9.3525 7.2 12V36C7.2 38.6475 9.3525 40.8 12 40.8H36C38.6475 40.8 40.8 38.6475 40.8 36V12ZM33.975 33.975C32.5725 35.3775 30.87 35.82 28.95 35.9175C26.97 36.03 21.03 36.03 19.05 35.9175C17.13 35.82 15.4275 35.3775 14.025 33.975C12.6225 32.5725 12.18 30.87 12.09 28.95C11.9775 26.97 11.9775 21.03 12.09 19.05C12.1875 17.13 12.6225 15.4275 14.025 14.025C15.4275 12.6225 17.1375 12.18 19.05 12.09C21.03 11.9775 26.97 11.9775 28.95 12.09C30.87 12.1875 32.5725 12.6225 33.975 14.025C35.3775 15.4275 35.82 17.13 35.91 19.05C36.0225 21.0225 36.0225 26.955 35.91 28.9425C35.8125 30.8625 35.3775 32.565 33.975 33.9675V33.975Z" fill="var(--fill-0, black)"/>
</g>
</svg>
