<svg preserveAspectRatio="none" width="100%" height="100%" overflow="visible" style="display: block;" viewBox="0 0 48 48" fill="none" xmlns="http://www.w3.org/2000/svg">
<g id="linkedin">
<path id="Primary" d="M38.4 7.2H9.5925C8.2725 7.2 7.2 8.2875 7.2 9.6225V38.3775C7.2 39.7125 8.2725 40.8 9.5925 40.8H38.4C39.72 40.8 40.8 39.7125 40.8 38.3775V9.6225C40.8 8.2875 39.72 7.2 38.4 7.2ZM17.355 36H12.375V19.965H17.3625V36H17.355ZM14.865 17.775C13.2675 17.775 11.9775 16.4775 11.9775 14.8875C11.9775 13.2975 13.2675 12 14.865 12C16.455 12 17.7525 13.2975 17.7525 14.8875C17.7525 16.485 16.4625 17.775 14.865 17.775ZM36.0225 36H31.0425V28.2C31.0425 26.34 31.005 23.9475 28.455 23.9475C25.86 23.9475 25.4625 25.9725 25.4625 28.065V36H20.4825V19.965H25.26V22.155H25.3275C25.995 20.895 27.6225 19.5675 30.045 19.5675C35.085 19.5675 36.0225 22.89 36.0225 27.21V36Z" fill="var(--fill-0, black)"/>
</g>
</svg>
