<svg preserveAspectRatio="none" width="100%" height="100%" overflow="visible" style="display: block;" viewBox="0 0 48 48" fill="none" xmlns="http://www.w3.org/2000/svg">
<g id="square-x-twitter">
<path id="Primary" d="M12 7.2C9.3525 7.2 7.2 9.3525 7.2 12V36C7.2 38.6475 9.3525 40.8 12 40.8H36C38.6475 40.8 40.8 38.6475 40.8 36V12C40.8 9.3525 38.6475 7.2 36 7.2H12ZM34.2825 13.5L26.4975 22.395L35.655 34.5H28.485L22.875 27.1575L16.4475 34.5H12.885L21.21 24.9825L12.4275 13.5H19.7775L24.855 20.2125L30.72 13.5H34.2825ZM31.4475 32.37L18.705 15.5175H16.5825L29.4675 32.37H31.44H31.4475Z" fill="var(--fill-0, black)"/>
</g>
</svg>
