<svg preserveAspectRatio="none" width="100%" height="100%" overflow="visible" style="display: block;" viewBox="0 0 32 32" fill="none" xmlns="http://www.w3.org/2000/svg">
<g id="mdi:steam">
<path id="Vector" d="M16 2.66667C17.751 2.66667 19.4848 3.01154 21.1024 3.68161C22.7201 4.35167 24.19 5.3338 25.4281 6.57191C26.6662 7.81002 27.6483 9.27988 28.3184 10.8976C28.9885 12.5152 29.3333 14.249 29.3333 16C29.3333 19.5362 27.9286 22.9276 25.4281 25.4281C22.9276 27.9286 19.5362 29.3333 16 29.3333C9.86667 29.3333 4.73333 25.2267 3.14667 19.64L8.25333 21.7467C8.42831 22.6008 8.89266 23.3683 9.56796 23.9197C10.2433 24.4712 11.0882 24.7727 11.96 24.7733C14.04 24.7733 15.7333 23.08 15.7333 21V20.8267L20.2667 17.5867H20.3733C23.1467 17.5867 25.4 15.3333 25.4 12.56C25.4 9.78667 23.1467 7.53333 20.3733 7.53333C17.6 7.53333 15.3333 9.78667 15.3333 12.56V12.6267L12.1733 17.24L11.96 17.2267C11.1733 17.2267 10.44 17.4667 9.84 17.88L2.66667 14.9333C3.24 8.06667 8.97333 2.66667 16 2.66667ZM11.04 22.8933C12.1067 23.3333 13.3333 22.84 13.7733 21.7733C14.2133 20.7067 13.7067 19.4933 12.6667 19.0533L10.96 18.3467C11.6133 18.1067 12.3467 18.0933 13.04 18.3867C13.7467 18.6667 14.2933 19.2133 14.5733 19.92C14.8667 20.6133 14.8667 21.3867 14.5733 22.08C14 23.52 12.3067 24.2133 10.8667 23.6133C10.2 23.3333 9.69333 22.8267 9.41333 22.2267L11.04 22.8933ZM23.7333 12.56C23.7333 14.4133 22.2267 15.92 20.3733 15.92C19.4845 15.9165 18.6333 15.5609 18.0061 14.9312C17.3788 14.3014 17.0267 13.4488 17.0267 12.56C17.0249 12.12 17.1103 11.684 17.2778 11.2772C17.4454 10.8704 17.6918 10.5007 18.0029 10.1896C18.3141 9.8785 18.6837 9.63205 19.0905 9.46449C19.4974 9.29693 19.9333 9.21157 20.3733 9.21333C21.2622 9.21333 22.1148 9.56549 22.7445 10.1927C23.3742 10.82 23.7298 11.6712 23.7333 12.56ZM17.8667 12.56C17.8667 13.9467 18.9867 15.08 20.3867 15.08C21.7733 15.08 22.8933 13.9467 22.8933 12.56C22.8933 11.1733 21.7733 10.04 20.3867 10.04C18.9867 10.04 17.8667 11.1733 17.8667 12.56Z" fill="var(--fill-0, white)"/>
</g>
</svg>
