<svg preserveAspectRatio="none" width="100%" height="100%" overflow="visible" style="display: block;" viewBox="0 0 24 24" fill="none" xmlns="http://www.w3.org/2000/svg">
<g id="20px/instagram">
<path id="Primary" d="M12.0031 8.40625C10.0156 8.40625 8.4125 10.0094 8.4125 11.9969C8.4125 13.9844 10.0156 15.5875 12.0031 15.5875C13.9906 15.5875 15.5938 13.9844 15.5938 11.9969C15.5938 10.0094 13.9906 8.40625 12.0031 8.40625ZM12.0031 14.3312C10.7188 14.3312 9.66875 13.2844 9.66875 11.9969C9.66875 10.7094 10.7156 9.6625 12.0031 9.6625C13.2906 9.6625 14.3375 10.7094 14.3375 11.9969C14.3375 13.2844 13.2875 14.3312 12.0031 14.3312ZM16.5781 8.25937C16.5781 8.725 16.2031 9.09688 15.7406 9.09688C15.275 9.09688 14.9031 8.72187 14.9031 8.25937C14.9031 7.79687 15.2781 7.42187 15.7406 7.42187C16.2031 7.42187 16.5781 7.79687 16.5781 8.25937ZM18.9563 9.10938C18.9031 7.9875 18.6469 6.99375 17.825 6.175C17.0063 5.35625 16.0125 5.1 14.8906 5.04375C13.7344 4.97812 10.2688 4.97812 9.1125 5.04375C7.99375 5.09687 7 5.35312 6.17813 6.17187C5.35625 6.99062 5.10313 7.98437 5.04688 9.10625C4.98125 10.2625 4.98125 13.7281 5.04688 14.8844C5.1 16.0062 5.35625 17 6.17813 17.8187C7 18.6375 7.99063 18.8937 9.1125 18.95C10.2688 19.0156 13.7344 19.0156 14.8906 18.95C16.0125 18.8969 17.0063 18.6406 17.825 17.8187C18.6438 17 18.9 16.0062 18.9563 14.8844C19.0219 13.7281 19.0219 10.2656 18.9563 9.10938ZM17.4625 16.125C17.2188 16.7375 16.7469 17.2094 16.1313 17.4562C15.2094 17.8219 13.0219 17.7375 12.0031 17.7375C10.9844 17.7375 8.79375 17.8187 7.875 17.4562C7.2625 17.2125 6.79063 16.7406 6.54375 16.125C6.17813 15.2031 6.2625 13.0156 6.2625 11.9969C6.2625 10.9781 6.18125 8.7875 6.54375 7.86875C6.7875 7.25625 7.25937 6.78437 7.875 6.5375C8.79688 6.17187 10.9844 6.25625 12.0031 6.25625C13.0219 6.25625 15.2125 6.175 16.1313 6.5375C16.7438 6.78125 17.2156 7.25312 17.4625 7.86875C17.8281 8.79062 17.7438 10.9781 17.7438 11.9969C17.7438 13.0156 17.8281 15.2062 17.4625 16.125Z" fill="var(--fill-0, black)"/>
</g>
</svg>
