<svg preserveAspectRatio="none" width="100%" height="100%" overflow="visible" style="display: block;" viewBox="0 0 80 80" fill="none" xmlns="http://www.w3.org/2000/svg">
<g id="vr-cardboard">
<path id="Primary" d="M72 16H8C3.5875 16 0 19.5875 0 24V56C0 60.4125 3.5875 64 8 64H23.05C26.075 64 28.85 62.2875 30.2 59.575L34.2 51.575C35.3 49.3875 37.5375 48 39.9875 48C42.4375 48 44.675 49.3875 45.775 51.575L49.775 59.575C51.125 62.2875 53.9 64 56.925 64H72C76.4125 64 80 60.4125 80 56V24C80 19.5875 76.4125 16 72 16ZM12 38C12 35.8783 12.8429 33.8434 14.3431 32.3431C15.8434 30.8429 17.8783 30 20 30C22.1217 30 24.1566 30.8429 25.6569 32.3431C27.1571 33.8434 28 35.8783 28 38C28 40.1217 27.1571 42.1566 25.6569 43.6569C24.1566 45.1571 22.1217 46 20 46C17.8783 46 15.8434 45.1571 14.3431 43.6569C12.8429 42.1566 12 40.1217 12 38ZM60 30C62.1217 30 64.1566 30.8429 65.6569 32.3431C67.1571 33.8434 68 35.8783 68 38C68 40.1217 67.1571 42.1566 65.6569 43.6569C64.1566 45.1571 62.1217 46 60 46C57.8783 46 55.8434 45.1571 54.3431 43.6569C52.8429 42.1566 52 40.1217 52 38C52 35.8783 52.8429 33.8434 54.3431 32.3431C55.8434 30.8429 57.8783 30 60 30Z" fill="var(--fill-0, #F6F1EB)"/>
</g>
</svg>
